<svg width="84" height="37" viewBox="0 0 84 37" xmlns="http://www.w3.org/2000/svg"><g fill="none" fill-rule="evenodd"><path d="M21.833 26.688c-2.433 2.612-5.137 4.24-9.699 4.24-6.961 0-12.132-5.393-12.132-12.209v-.068c0-6.748 5.07-12.276 12.335-12.276 4.46 0 7.13 1.492 9.327 3.663l-3.312 3.832c-1.825-1.662-3.683-2.68-6.049-2.68-3.987 0-6.86 3.324-6.86 7.394v.067c0 4.07 2.805 7.46 6.86 7.46 2.704 0 4.36-1.084 6.218-2.78l3.312 3.357z" fill="#3E45AC"/><path d="M12.482 13.01a5.93 5.93 0 0 1 1.706.31c.532.183 1.05.446 1.552.79l1.413 8.016c-.398.37-.85.731-1.354 1.081-.504.35-.966.598-1.388.743l-1.93-10.94zm3.41 19.338c.519-.111 1.059-.27 1.62-.48.56-.207.982-.388 1.264-.54l.791 4.489-2.971.523-.704-3.992zM10.287.558l2.97-.523.812 4.599c-.51-.036-.993-.061-1.45-.074-.457-.014-.997.004-1.618.053L10.287.559zM8.001 15.581c.289-.536.66-1 1.112-1.392a4.973 4.973 0 0 1 1.546-.907l1.942 11.009a5.231 5.231 0 0 1-1.771-.215 4.498 4.498 0 0 1-1.466-.763l-1.363-7.732zm3.019 17.12a17.895 17.895 0 0 0 3.054-.053l.666 3.774-2.972.524-.748-4.245zM5.459 1.164L8.43.64l.748 4.242a13.878 13.878 0 0 0-2.898.939L5.46 1.164z" fill="#EFB735"/><path d="M38.36 20.948c0 1.86-1.506 2.79-3.794 2.79h-4.823V13.565h4.707c2.07 0 3.345 1.032 3.345 2.63v.03c0 1.147-.608 1.787-1.332 2.194 1.173.45 1.897 1.133 1.897 2.5v.029zm-2.78-4.346v-.029c0-.668-.522-1.046-1.463-1.046h-2.202v2.15h2.057c.985 0 1.607-.32 1.607-1.075zm.564 4.07v-.03c0-.683-.507-1.104-1.65-1.104h-2.579v2.238h2.65c.985 0 1.58-.349 1.58-1.104zm6.184-5.581h-2.317v-1.962h2.317v1.962zm-.058 8.647H40.07v-7.79h2.201v7.79zm6.43-.32c-.463.277-.999.45-1.737.45-1.347 0-2.26-.537-2.26-2.339v-3.691h-.926v-1.89h.926v-1.99h2.202v1.99h1.825v1.89h-1.825v3.328c0 .508.217.755.71.755.405 0 .767-.101 1.086-.276v1.773zm10.79-1.322c-1.042 1.119-2.201 1.817-4.156 1.817-2.984 0-5.2-2.311-5.2-5.233v-.029c0-2.892 2.173-5.26 5.287-5.26 1.911 0 3.056.639 3.997 1.569l-1.42 1.642c-.781-.712-1.578-1.148-2.592-1.148-1.709 0-2.94 1.424-2.94 3.168v.03c0 1.743 1.202 3.197 2.94 3.197 1.159 0 1.868-.465 2.665-1.192l1.42 1.439zm8.227 1.642h-2.13v-.843c-.535.596-1.274.988-2.346.988-1.462 0-2.664-.842-2.664-2.383v-.03c0-1.7 1.289-2.484 3.128-2.484.782 0 1.347.13 1.897.32v-.131c0-.916-.565-1.425-1.665-1.425-.84 0-1.434.16-2.144.422l-.55-1.686c.854-.378 1.694-.625 3.012-.625 2.404 0 3.462 1.25 3.462 3.357v4.52zm-2.086-2.747V20.6a3.403 3.403 0 0 0-1.405-.29c-.941 0-1.52.377-1.52 1.075v.029c0 .596.492.944 1.202.944 1.028 0 1.723-.566 1.723-1.366zm9.675.378c0 1.73-1.29 2.514-2.97 2.514a5.426 5.426 0 0 1-3.33-1.177l.94-1.453c.84.61 1.724.93 2.448.93.638 0 .927-.232.927-.581v-.03c0-.479-.753-.639-1.607-.9-1.086-.32-2.317-.829-2.317-2.34v-.03c0-1.584 1.274-2.47 2.838-2.47.985 0 2.057.334 2.897.901l-.84 1.526c-.768-.45-1.535-.727-2.1-.727-.536 0-.811.233-.811.538v.03c0 .435.738.639 1.578.93 1.087.363 2.347.886 2.347 2.31v.03zm8.69 2.37h-2.202v-4.346c0-1.047-.493-1.585-1.333-1.585s-1.375.538-1.375 1.585v4.345h-2.202v-10.61h2.202v3.925c.506-.654 1.158-1.25 2.273-1.25 1.666 0 2.636 1.104 2.636 2.892v5.043z" fill="#000"/></g></svg>