<svg xmlns="http://www.w3.org/2000/svg" xmlns:xlink="http://www.w3.org/1999/xlink" width="105" height="37" viewBox="0 0 105 37"><defs><path id="a" d="M257.86 14826.8v-28.6h26.28v28.6zm20.39-9.47c-1.83 1.7-3.47 2.79-6.13 2.79-4 0-6.76-3.4-6.76-7.47v-.07c0-4.08 2.83-7.4 6.76-7.4 2.33 0 4.16 1.01 5.96 2.68l3.26-3.84c-2.16-2.18-4.8-3.67-9.19-3.67-7.16 0-12.15 5.54-12.15 12.3v.06c0 6.83 5.1 12.23 11.95 12.23 4.5 0 7.16-1.63 9.56-4.24z"/><path id="b" d="M271.64 14830.96l-6.32-35.84 2.93-.51 6.32 35.84z"/><path id="c" d="M276.4 14830.36l-6.32-35.84 2.93-.51 6.32 35.84z"/><path id="d" d="M281.51 14820.7c-2.4 2.61-5.06 4.24-9.56 4.24-6.86 0-11.95-5.4-11.95-12.23v-.06c0-6.76 5-12.3 12.15-12.3 4.4 0 7.03 1.5 9.2 3.67l-3.27 3.84c-1.8-1.67-3.63-2.69-5.96-2.69-3.93 0-6.76 3.33-6.76 7.4v.08c0 4.07 2.76 7.47 6.76 7.47 2.66 0 4.3-1.09 6.13-2.79z"/><path id="f" d="M309.78 14814.5v-3.99h-1.23v-2.56h1.23v-2.44h3.08v2.44h2.01v2.56h-2.01v4.03c0 .6.25.85.93.85h1.1v2.6h-1.57c-2.08 0-3.54-.87-3.54-3.48zm-4.24-7.59c-1.1 0-1.85-.74-1.85-1.66 0-.93.74-1.67 1.85-1.67 1.08 0 1.82.74 1.82 1.67 0 .92-.74 1.66-1.82 1.66zm-1.56 11.1v-10.06h3.08v10.06zm-1.78-3.45c0 2.09-1.53 3.44-4.2 3.44h-5.88v-12.64h5.69c2.57 0 4.1 1.28 4.1 3.28 0 1.53-.92 2.52-2.14 2.88 1.48.3 2.43 1.6 2.43 3.04zm-3.42-5.4c0-.87-.56-1.33-1.57-1.33h-2.01v2.63h2.01c1.01 0 1.57-.44 1.57-1.3zm.3 4.99c0-.9-.62-1.43-1.65-1.43h-2.23v2.8h2.27c1.02 0 1.62-.47 1.62-1.37z"/><path id="g" d="M352.58 14818v-13.32h3.08v4.63a3.7 3.7 0 0 1 3.1-1.46c2.28 0 3.8 1.58 3.8 4.28v5.87h-3.05v-5.45c0-1.37-.76-2.13-1.93-2.13s-1.92.76-1.92 2.13v5.45zm-1.9-2.92c0 1.75-1.55 3.06-4.06 3.06-2.68 0-4.48-1.49-4.62-3.43h3.03c.08.7.7 1.17 1.55 1.17.8 0 1.2-.36 1.2-.81 0-1.62-5.46-.45-5.46-4.14 0-1.71 1.46-3.12 4.08-3.12 2.6 0 4.03 1.44 4.23 3.42h-2.84c-.1-.68-.62-1.13-1.48-1.13-.72 0-1.11.29-1.11.77 0 1.6 5.43.47 5.48 4.21zm-13.47-2.1c0-1.6-1.02-2.49-2.19-2.49-1.15 0-2.19.87-2.19 2.47s1.04 2.5 2.2 2.5c1.16 0 2.18-.88 2.18-2.48zm-7.51-.02c0-3.17 1.96-5.15 4.42-5.15 1.5 0 2.56.69 3.1 1.57v-1.42h3.07v10.04h-3.07v-1.42a3.55 3.55 0 0 1-3.11 1.56c-2.45 0-4.41-2.01-4.41-5.18zm-13.63-1.3c0-3.78 2.63-6.44 6.35-6.44 3 0 5.27 1.7 6 4.43h-3.4a2.78 2.78 0 0 0-2.64-1.62c-1.88 0-3.18 1.4-3.18 3.63 0 2.24 1.3 3.64 3.18 3.64 1.17 0 2.13-.54 2.65-1.62h3.38c-.72 2.74-2.99 4.41-5.99 4.41-3.72 0-6.35-2.65-6.35-6.43z"/><clipPath id="e"><use fill="#fff" xlink:href="#a"/></clipPath></defs><g opacity=".5"><use fill="#efb735" xlink:href="#b" transform="translate(-258 -14794)"/><use fill="#efb735" xlink:href="#c" transform="translate(-258 -14794)"/><g fill="#fff" transform="translate(-258 -14794)"><use xlink:href="#d"/><use fill-opacity="0" stroke="#202124" stroke-miterlimit="50" stroke-width="3.6" clip-path="url(&quot;#e&quot;)" xlink:href="#d"/></g><g transform="translate(-258 -14794)"><use fill="#fff" xlink:href="#f"/></g><g transform="translate(-258 -14794)"><use fill="#fff" xlink:href="#g"/></g></g></svg>